<?xml version="1.0" standalone="no"?><!DOCTYPE svg PUBLIC "-//W3C//DTD SVG 1.1//EN" "http://www.w3.org/Graphics/SVG/1.1/DTD/svg11.dtd"><svg t="1698721163404" class="icon" viewBox="0 0 1024 1024" version="1.1" xmlns="http://www.w3.org/2000/svg" p-id="1162" xmlns:xlink="http://www.w3.org/1999/xlink" width="200" height="200"><path d="M715.9 350.8l-39.2 468.9c-2.9 40.6-41 72.2-87 72.2H416.3c-46 0-84.1-31.6-87-72.3l-39.2-468.9h425.8zM503 346.5v2.2H285.7l-0.1-2.2z" fill="#EDECEC" p-id="1163"></path><path d="M503 367.1H285.7c-9.6 0-17.6-7.4-18.3-17l-0.2-2.2c-0.4-5.1 1.4-10.1 4.9-13.9 3.5-3.7 8.4-5.9 13.5-5.9H503c10.1 0 18.4 8.2 18.4 18.4v2.2c0 10.1-8.3 18.4-18.4 18.4z" fill="#221E1F" p-id="1164"></path><path d="M720.4 346.5l-0.2 2.2H503v-2.2z" fill="#EDECEC" p-id="1165"></path><path d="M720.2 367.1H503c-10.1 0-18.4-8.2-18.4-18.4v-2.2c0-10.1 8.2-18.4 18.4-18.4h217.4c5.1 0 10 2.1 13.5 5.9 3.5 3.7 5.2 8.8 4.9 13.9l-0.2 2.2c-0.8 9.6-8.7 17-18.4 17z" fill="#221E1F" p-id="1166"></path><path d="M659.4 350.8l-28.8 468.9c-2.1 40.6-30.1 72.2-64 72.2H439.2c-33.8 0-61.8-31.6-64-72.3l-28.8-468.9h313z" fill="#FCFAFB" p-id="1167"></path><path d="M608.6 906.4H397.4c-49.3 0-90.4-38.6-93.5-87.8l-34.6-468.7c-0.3-4.6 1.3-9.1 4.4-12.5 3.1-3.4 7.5-5.3 12.1-5.3h434.5c4.6 0 9 1.9 12.1 5.3 3.1 3.4 4.7 7.9 4.4 12.5l-34.7 468.9c-3.2 49.1-44.2 87.6-93.5 87.6z m-305-541.1l33.3 451.1c2 32 28.6 56.9 60.4 56.9h211.2c31.9 0 58.4-24.9 60.4-56.7l33.4-451.3H303.6z" fill="#221E1F" p-id="1168"></path><path d="M742.7 306.5v42.2H263.2v-42.2c0-23.6 19.1-42.8 42.9-42.8H700c23.6 0 42.7 19.2 42.7 42.8z" fill="#EDECEC" p-id="1169"></path><path d="M653 306.4v42.2H352.9v-42.2c0-23.6 12-42.8 26.8-42.8h246.5c14.8 0.1 26.8 19.2 26.8 42.8z" fill="#FCFAFB" p-id="1170"></path><path d="M244.8 348.7v-42.2c0-33.7 27.4-61.1 61.1-61.1h393.9c33.8 0 61.2 27.4 61.2 61.1v42.2c0 10.1-8.2 18.4-18.4 18.4H263.2c-10.1 0-18.4-8.3-18.4-18.4z m479.5-42.2c0-13.5-11-24.4-24.5-24.4H306c-13.5 0-24.4 10.9-24.4 24.4v23.8h442.8v-23.8z" fill="#221E1F" p-id="1171"></path><path d="M642.9 180.8H363.4c-14 0-26.3 9.5-29.8 23l-15.7 59.8H688L672.8 204c-3.5-13.7-15.8-23.2-29.9-23.2z" fill="#EDECEC" p-id="1172"></path><path d="M688.1 282H317.9c-5.7 0-11.1-2.6-14.5-7.1-3.5-4.5-4.7-10.4-3.2-15.9l15.7-59.8c5.7-21.6 25.2-36.8 47.6-36.8H643c22.5 0 42.1 15.2 47.7 37l15.3 59.7c1.4 5.5 0.2 11.3-3.3 15.8-3.6 4.5-9 7.1-14.6 7.1z m-346.4-36.7h322.7l-9.4-36.8c-1.4-5.5-6.4-9.4-12.1-9.4H363.4c-5.7 0-10.6 3.8-12.1 9.3l-9.6 36.9z" fill="#221E1F" p-id="1173"></path><path d="M700.8 752.7H305.1l-17.3-269.8h430.3z" fill="#FFDA64" p-id="1174"></path><path d="M700.8 771.1H305.1c-9.7 0-17.7-7.5-18.3-17.2l-17.3-269.8c-0.3-5.1 1.5-10 4.9-13.7 3.5-3.7 8.3-5.8 13.4-5.8h430.3c5.1 0 9.9 2.1 13.4 5.8 3.5 3.7 5.3 8.7 4.9 13.7l-17.3 269.8c-0.5 9.6-8.6 17.2-18.3 17.2z m-378.4-36.8h361.2l14.9-233.1H307.4l15 233.1z" fill="#221E1F" p-id="1175"></path><path d="M508.3 689.5c13.3-5.2 37.6-19.3 50.8-56.2 11.5-32.4 5.1-54.7-2.4-67.7-7.8-13.6-20.8-23.6-33.9-26.2-18.7-3.6-34.9 4.3-42.1 20.5-4.8 10.8-3.3 19.7-1.9 27.6 1.2 6.8 2.2 12.7-0.9 19.6-3.4 7.4-7.3 9.8-12.8 13-5.2 3.1-11 6.5-16.5 14.5-5 7.3-6.5 17.7-4 27.7 0.3 1.1 0.6 2.1 0.9 3.2 3.4 10.2 10.6 18.6 20.5 23.9 11.1 6 26.9 6 42.3 0.1z" fill="#FFFFFF" p-id="1176"></path><path d="M508.3 689.6c13.3-5.2 37.6-19.3 50.8-56.2 11.5-32.4 5.1-54.7-2.4-67.7-7.8-13.6-20.8-23.6-33.9-26.2-18.7-3.6-34.9 4.3-42.1 20.5-4.8 10.8-3.3 19.7-1.9 27.6 1.2 6.8 2.2 12.7-0.9 19.6-3.4 7.4-7.3 9.8-12.8 13-5.2 3.1-11 6.5-16.5 14.5-5 7.3-6.5 17.7-4 27.7 0.3 1.1 0.6 2.1 0.9 3.2 3.4 10.2 10.6 18.6 20.5 23.9 11.1 6.1 26.9 6.1 42.3 0.1z m-36.2-11.3c-7.7-4.1-13-10.8-14.9-18.8-1.6-6.4-0.8-13.1 2.1-17.4 3.8-5.6 7.8-7.9 12.4-10.6 6.1-3.6 12.9-7.7 18-18.8 4.7-10.5 3.2-19.3 1.9-27.1-1.2-7-2.2-13 1-20.2 4.7-10.6 15.2-15.5 27.9-13.1 7.1 1.4 17.9 7.4 25.1 19.9 1.5 2.6 2.9 5.6 4.1 9.1 3.7 11 4.8 26.8-2.7 47.8-11.4 32-32 44.1-43.2 48.4-11.9 4.6-24 4.9-31.7 0.8z" fill="" p-id="1177"></path><path d="M539.5 624.9c1.2-3.4-0.6-7.1-3.9-8.3-3.4-1.2-7.1 0.6-8.3 3.9-7.4 20.8-21.6 36-38.8 41.5-3.4 1.1-5.3 4.7-4.2 8.1v0.1c1.1 3.4 4.7 5.2 8.1 4.1 21.2-6.6 38.3-24.7 47.1-49.4zM543.6 606.3l0.1-0.2c1-3.4-0.9-7-4.3-8.1-3.4-1-7 0.9-8.1 4.3l-0.1 0.2c-0.4 1.3-0.4 2.7 0.1 3.9 0.6 1.9 2.2 3.5 4.3 4.2 3.4 1.1 7-0.8 8-4.3z" fill="" p-id="1178"></path></svg>